HIERARCHY
ROOT Hips
{
	OFFSET 0.00000 0.00000 0.00000
	CHANNELS 6 Xposition Yposition Zposition Zrotation Yrotation Xrotation 
	JOINT LHipJoint
	{
		OFFSET 0 0 0
		CHANNELS 3 Zrotation Yrotation Xrotation
		JOINT LeftUpLeg
		{
			OFFSET 1.49846 -1.74315 1.08250
			CHANNELS 3 Zrotation Yrotation Xrotation
			JOINT LeftLeg
			{
				OFFSET 2.40966 -6.62050 0.00000
				CHANNELS 3 Zrotation Yrotation Xrotation
				JOINT LeftFoot
				{
					OFFSET 2.68066 -7.36505 0.00000
					CHANNELS 3 Zrotation Yrotation Xrotation
					JOINT LeftToeBase
					{
						OFFSET 0.14291 -0.39265 2.35870
						CHANNELS 3 Zrotation Yrotation Xrotation
						End Site
						{
							OFFSET 0.00000 -0.00000 1.20470
						}
					}
				}
			}
		}
	}
	JOINT RHipJoint
	{
		OFFSET 0 0 0
		CHANNELS 3 Zrotation Yrotation Xrotation
		JOINT RightUpLeg
		{
			OFFSET -1.46318 -1.74316 1.08250
			CHANNELS 3 Zrotation Yrotation Xrotation
			JOINT RightLeg
			{
				OFFSET -2.39759 -6.58734 0.00000
				CHANNELS 3 Zrotation Yrotation Xrotation
				JOINT RightFoot
				{
					OFFSET -2.63570 -7.24154 0.00000
					CHANNELS 3 Zrotation Yrotation Xrotation
					JOINT RightToeBase
					{
						OFFSET -0.17578 -0.48294 2.47180
						CHANNELS 3 Zrotation Yrotation Xrotation
						End Site
						{
							OFFSET -0.00000 -0.00000 1.26600
						}
					}
				}
			}
		}
	}
	JOINT LowerBack
	{
		OFFSET 0 0 0
		CHANNELS 3 Zrotation Yrotation Xrotation
		JOINT Spine
		{
			OFFSET 0.00843 2.19877 -0.20423
			CHANNELS 3 Zrotation Yrotation Xrotation
			JOINT Spine1
			{
				OFFSET -0.03080 2.21436 -0.05138
				CHANNELS 3 Zrotation Yrotation Xrotation
				JOINT Neck
				{
					OFFSET 0 0 0
					CHANNELS 3 Zrotation Yrotation Xrotation
					JOINT Neck1
					{
						OFFSET -0.04063 1.58841 0.30440
						CHANNELS 3 Zrotation Yrotation Xrotation
						JOINT Head
						{
							OFFSET 0.09277 1.59484 -0.39337
							CHANNELS 3 Zrotation Yrotation Xrotation
							End Site
							{
								OFFSET 0.03488 1.66530 -0.17040
							}
						}
					}
				}
				JOINT LeftShoulder
				{
					OFFSET 0 0 0
					CHANNELS 3 Zrotation Yrotation Xrotation
					JOINT LeftArm
					{
						OFFSET 3.03849 1.31522 0.02556
						CHANNELS 3 Zrotation Yrotation Xrotation
						JOINT LeftForeArm
						{
							OFFSET 5.25537 -0.00000 0.00000
							CHANNELS 3 Zrotation Yrotation Xrotation
							JOINT LeftHand
							{
								OFFSET 3.38855 -0.00000 -0.00000
								CHANNELS 3 Zrotation Yrotation Xrotation
								JOINT LeftFingerBase
								{
									OFFSET 0 0 0
									CHANNELS 3 Zrotation Yrotation Xrotation
									JOINT LeftHandIndex1
									{
										OFFSET 0.61452 -0.00000 0.00000
										CHANNELS 3 Zrotation Yrotation Xrotation
										End Site
										{
											OFFSET 0.49544 -0.00000 0.00000
										}
									}
								}
								JOINT LThumb
								{
									OFFSET 0 0 0
									CHANNELS 3 Zrotation Yrotation Xrotation
									End Site
									{
										OFFSET 0.50300 -0.00000 0.50300
									}
								}
							}
						}
					}
				}
				JOINT RightShoulder
				{
					OFFSET 0 0 0
					CHANNELS 3 Zrotation Yrotation Xrotation
					JOINT RightArm
					{
						OFFSET -3.06926 1.12091 -0.13185
						CHANNELS 3 Zrotation Yrotation Xrotation
						JOINT RightForeArm
						{
							OFFSET -5.38183 -0.00000 0.00000
							CHANNELS 3 Zrotation Yrotation Xrotation
							JOINT RightHand
							{
								OFFSET -3.16988 -0.00000 0.00000
								CHANNELS 3 Zrotation Yrotation Xrotation
								JOINT RightFingerBase
								{
									OFFSET 0 0 0
									CHANNELS 3 Zrotation Yrotation Xrotation
									JOINT RightHandIndex1
									{
										OFFSET -0.63768 -0.00000 0.00000
										CHANNELS 3 Zrotation Yrotation Xrotation
										End Site
										{
											OFFSET -0.51411 -0.00000 0.00000
										}
									}
								}
								JOINT RThumb
								{
									OFFSET 0 0 0
									CHANNELS 3 Zrotation Yrotation Xrotation
									End Site
									{
										OFFSET -0.52196 -0.00000 0.52196
									}
								}
							}
						}
					}
				}
			}
		}
	}
}
MOTION
Frames: 8
Frame Time: .0083333
5.9498 17.2318 -30.4412 0 0 0 0 0 0 -21 0 0 0 0 0 0 0 0 0 0 0 0 0 0 21 0 0 0 0 0 0 0 0 0 0 0 0 0 0 0 0 0 0 0 0 0 0 -16 0 0 21 0 0 11 0 0 0 -8 0 0 0 0 0 0 0 0 0 0 0 0 0 0 0 0 0 0 0 0 8 0 0 0 0 0 0 0 0 0 0 0 0 0 0 0 0 0
5.9498 17.2318 -30.4412 2.4159 -0.3571 3.0307 0.0000 0.0000 0.0000 -20.2540 -24.4622 -5.4444 3.3990 11.3145 33.3480 0.5025 17.8442 -29.1784 0.0293 1.1054 3.0388 0.0000 0.0000 0.0000 17.8989 31.3376 -1.8938 -3.8962 -12.0210 35.8064 -4.4359 -18.5425 -48.7840 -0.5180 -4.6130 12.8081 -1.2927 -0.6003 -3.3745 -2.5212 -0.5777 4.3021 -1.9539 -0.2797 6.3550 -6.8695 -3.3247 -17.5145 8.9452 -4.9513 21.7942 3.6365 -1.8221 10.2550 0.0000 0.0000 0.0000 -23.5015 9.1009 -7.5373 13.5903 -22.1461 -2.6717 -0.0000 -0.0000 19.1115 17.3505 -1.0593 -0.3309 -7.1250 0.0000 -0.0000 -7.1742 28.8389 2.8443 0.0000 0.0000 0.0000 21.5828 -5.1676 -4.2394 -14.3188 23.1886 -2.9525 0.0000 -0.0000 -0.1362 -8.3261 7.7793 -1.1348 7.1250 -0.0000 -0.0000 13.4017 -22.1815 7.5538
5.9484 17.2320 -30.4420 2.4502 -0.3641 3.0229 0.0000 0.0000 0.0000 -20.2727 -24.3899 -5.4616 3.3962 11.3103 33.3337 0.5202 17.7438 -29.1861 0.0328 1.1686 3.2128 0.0000 0.0000 0.0000 17.8420 31.2788 -1.9262 -3.8963 -12.0211 35.8066 -4.4093 -18.5628 -48.6992 -0.5146 -4.5981 12.7657 -1.3521 -0.6048 -3.3783 -2.5310 -0.5792 4.3019 -1.9310 -0.2830 6.3575 -6.8775 -3.3222 -17.6319 8.9685 -4.9309 21.6048 3.6445 -1.8094 10.2084 -0.0000 -0.0000 0.0000 -23.5759 9.1006 -7.6707 13.5348 -22.0658 -2.6508 -0.0000 -0.0000 19.4153 17.4483 -1.0814 -0.3399 -7.1250 0.0000 -0.0000 -7.0968 28.8159 2.8171 -0.0000 -0.0000 0.0000 21.5783 -5.2927 -3.9693 -14.3863 23.2843 -2.9791 0.0000 -0.0000 -0.2935 -8.4183 7.6590 -1.1300 7.1250 -0.0000 -0.0000 13.3454 -22.2974 7.4839
5.9469 17.2325 -30.4432 2.4147 -0.3680 3.0309 0.0000 0.0000 0.0000 -20.1972 -24.2938 -5.5251 3.3958 11.3098 33.3319 0.5098 17.7251 -29.0904 0.0277 1.0738 2.9519 0.0000 0.0000 0.0000 17.8822 31.2968 -1.9325 -3.8937 -12.0176 35.7941 -4.3855 -18.6703 -48.6802 -0.5049 -4.5549 12.6432 -1.3101 -0.6054 -3.3709 -2.5401 -0.5834 4.2687 -1.9636 -0.2830 6.3174 -6.8484 -3.3072 -17.7264 8.9687 -4.9009 21.4427 3.6399 -1.7923 10.1648 -0.0000 -0.0000 0.0000 -23.5470 9.2175 -7.4596 13.5134 -22.0347 -2.6428 -0.0000 -0.0000 19.4221 17.4117 -1.0907 -0.3420 -7.1250 0.0000 -0.0000 -7.1246 28.8062 2.8299 -0.0000 -0.0000 0.0000 21.6146 -5.3887 -3.8532 -14.4125 23.3213 -2.9895 0.0000 -0.0000 -0.3210 -8.4291 7.6424 -1.1290 7.1250 -0.0000 -0.0000 13.3390 -22.3134 7.4751
5.9447 17.2327 -30.4453 2.4262 -0.3527 3.0219 0.0000 0.0000 0.0000 -20.1754 -24.2080 -5.5700 3.3948 11.3083 33.3267 0.5113 17.6535 -29.0173 0.0281 1.0823 2.9752 0.0000 0.0000 0.0000 17.8559 31.2176 -1.9604 -3.8920 -12.0153 35.7862 -4.3765 -18.6349 -48.6244 -0.5015 -4.5400 12.6011 -1.3501 -0.6153 -3.3450 -2.5345 -0.5955 4.2585 -1.9357 -0.2910 6.2919 -6.8981 -3.3046 -17.7953 9.0059 -4.8741 21.2523 3.6610 -1.7798 10.1097 -0.0000 -0.0000 0.0000 -23.6122 9.2249 -7.5334 13.4506 -21.9438 -2.6193 -0.0000 -0.0000 19.6769 17.3678 -1.2298 -0.3846 -7.1250 0.0000 -0.0000 -7.1494 28.6616 2.8646 -0.0000 -0.0000 0.0000 21.6240 -5.3894 -3.9791 -14.3753 23.2687 -2.9748 0.0000 -0.0000 -0.2000 -8.3976 7.7502 -1.1405 7.1250 -0.0000 -0.0000 13.3529 -22.2083 7.5163
5.9428 17.2329 -30.4470 2.4275 -0.3448 3.0174 0.0000 0.0000 0.0000 -20.1461 -24.1298 -5.6142 3.3948 11.3082 33.3265 0.5124 17.5892 -28.9495 0.0280 1.0803 2.9698 0.0000 0.0000 0.0000 17.8452 31.1698 -1.9804 -3.8896 -12.0120 35.7744 -4.3600 -18.6545 -48.5762 -0.4971 -4.5202 12.5451 -1.3681 -0.6221 -3.3272 -2.5347 -0.6043 4.2439 -1.9260 -0.2963 6.2661 -6.9421 -3.2990 -17.8593 9.0502 -4.8468 21.0604 3.6838 -1.7659 10.0532 -0.0000 -0.0000 0.0000 -23.6476 9.2653 -7.5295 13.4006 -21.8714 -2.6006 -0.0000 -0.0000 19.8562 17.3472 -1.3017 -0.4066 -7.1250 0.0000 -0.0000 -7.1606 28.5869 2.8819 -0.0000 -0.0000 0.0000 21.6379 -5.4355 -3.9815 -14.3690 23.2597 -2.9723 0.0000 -0.0000 -0.1694 -8.4072 7.7823 -1.1465 7.1250 -0.0000 -0.0000 13.3433 -22.1765 7.5207
5.9407 17.2331 -30.4489 2.4282 -0.3342 3.0126 0.0000 0.0000 0.0000 -20.1156 -24.0534 -5.6572 3.3942 11.3074 33.3238 0.5115 17.5281 -28.8713 0.0278 1.0757 2.9570 0.0000 0.0000 0.0000 17.8374 31.1255 -2.0001 -3.8879 -12.0098 35.7665 -4.3467 -18.6706 -48.5375 -0.4935 -4.5039 12.4988 -1.3840 -0.6289 -3.3075 -2.5344 -0.6135 4.2306 -1.9170 -0.3016 6.2407 -6.9978 -3.2954 -17.9182 9.1034 -4.8213 20.8697 3.7116 -1.7529 9.9970 0.0000 0.0000 0.0000 -23.6803 9.3029 -7.5270 13.3496 -21.7973 -2.5817 -0.0000 -0.0000 20.0256 17.3124 -1.3703 -0.4271 -7.1250 0.0000 -0.0000 -7.1830 28.5156 2.9033 0.0000 0.0000 0.0000 21.6530 -5.4790 -4.0027 -14.3585 23.2449 -2.9681 0.0000 -0.0000 -0.1415 -8.4071 7.8279 -1.1532 7.1250 -0.0000 -0.0000 13.3398 -22.1316 7.5326
5.9385 17.2333 -30.4508 2.4305 -0.3225 3.0072 0.0000 0.0000 0.0000 -20.0871 -23.9801 -5.6992 3.3939 11.3069 33.3219 0.5106 17.4683 -28.7955 0.0276 1.0717 2.9461 0.0000 0.0000 0.0000 17.8279 31.0798 -2.0208 -3.8864 -12.0077 35.7593 -4.3334 -18.6865 -48.4988 -0.4903 -4.4895 12.4580 -1.3998 -0.6352 -3.2882 -2.5342 -0.6218 4.2208 -1.9081 -0.3065 6.2192 -7.0579 -3.2946 -17.9829 9.1581 -4.7990 20.6857 3.7403 -1.7412 9.9448 0.0000 -0.0000 0.0000 -23.7129 9.3353 -7.5344 13.2982 -21.7225 -2.5626 -0.0000 -0.0000 20.1883 17.2644 -1.4398 -0.4474 -7.1250 0.0000 -0.0000 -7.2156 28.4435 2.9291 0.0000 -0.0000 0.0000 21.6666 -5.5280 -4.0165 -14.3516 23.2350 -2.9654 0.0000 -0.0000 -0.1366 -8.4027 7.8658 -1.1581 7.1250 -0.0000 -0.0000 13.3399 -22.0945 7.5443
